<svg xmlns="http://www.w3.org/2000/svg" xmlns:xlink="http://www.w3.org/1999/xlink" width="1920" zoomAndPan="magnify" viewBox="0 0 1440 525.000007" height="700" preserveAspectRatio="xMidYMid meet" version="1.0"><defs><g/><clipPath id="334f537947"><path d="M 1.367188 0 L 1438.628906 0 L 1438.628906 524 L 1.367188 524 Z M 1.367188 0 " clip-rule="nonzero"/></clipPath><clipPath id="4830c3efb0"><path d="M 826.734375 159.734375 L 978.703125 159.734375 L 978.703125 311.699219 L 826.734375 311.699219 Z M 826.734375 159.734375 " clip-rule="nonzero"/></clipPath><clipPath id="0957146b27"><path d="M 899 68.304688 L 907 68.304688 L 907 135 L 899 135 Z M 899 68.304688 " clip-rule="nonzero"/></clipPath><clipPath id="3f7c4bb85e"><path d="M 738.988281 228 L 806 228 L 806 235.804688 L 738.988281 235.804688 Z M 738.988281 228 " clip-rule="nonzero"/></clipPath><clipPath id="e6f70ebf60"><path d="M 1000 228 L 1066.429688 228 L 1066.429688 235.804688 L 1000 235.804688 Z M 1000 228 " clip-rule="nonzero"/></clipPath><clipPath id="7c9aede344"><path d="M 927.398438 419.050781 L 1438.628906 419.050781 L 1438.628906 524 L 927.398438 524 Z M 927.398438 419.050781 " clip-rule="nonzero"/></clipPath><clipPath id="408ccdf362"><path d="M 520 473 L 1044 473 L 1044 524 L 520 524 Z M 520 473 " clip-rule="nonzero"/></clipPath><clipPath id="a0714221f8"><path d="M 519.984375 565.816406 L 1007.902344 413.050781 L 1044.136719 528.78125 L 556.21875 681.542969 Z M 519.984375 565.816406 " clip-rule="nonzero"/></clipPath><clipPath id="e7f3811817"><path d="M 519.984375 565.816406 L 1007.902344 413.050781 L 1044.136719 528.78125 L 556.21875 681.542969 Z M 519.984375 565.816406 " clip-rule="nonzero"/></clipPath><clipPath id="866ce26202"><path d="M 1.367188 0 L 293.921875 0 L 293.921875 193.121094 L 1.367188 193.121094 Z M 1.367188 0 " clip-rule="nonzero"/></clipPath><clipPath id="d48bd37a4e"><path d="M 1255.828125 0 L 1438.628906 0 L 1438.628906 195.859375 L 1255.828125 195.859375 Z M 1255.828125 0 " clip-rule="nonzero"/></clipPath></defs><g clip-path="url(#334f537947)"><path fill="#ffffff" d="M 1.367188 0 L 1438.632812 0 L 1438.632812 524 L 1.367188 524 Z M 1.367188 0 " fill-opacity="1" fill-rule="nonzero"/><path fill="#ffffff" d="M 1.367188 0 L 1438.632812 0 L 1438.632812 524 L 1.367188 524 Z M 1.367188 0 " fill-opacity="1" fill-rule="nonzero"/></g><g clip-path="url(#4830c3efb0)"><path fill="#f9b233" d="M 902.664062 159.734375 C 860.652344 159.734375 826.734375 193.648438 826.734375 235.664062 C 826.734375 277.679688 860.652344 311.597656 902.664062 311.597656 C 944.679688 311.597656 978.597656 277.679688 978.597656 235.664062 C 978.597656 193.648438 944.679688 159.734375 902.664062 159.734375 Z M 902.664062 304.847656 C 864.53125 304.847656 833.484375 273.800781 833.484375 235.664062 C 833.484375 197.53125 864.53125 166.484375 902.664062 166.484375 C 940.800781 166.484375 971.847656 197.53125 971.847656 235.664062 C 971.847656 273.800781 940.800781 304.847656 902.664062 304.847656 Z M 902.664062 304.847656 " fill-opacity="1" fill-rule="nonzero"/></g><path fill="#f9b233" d="M 902.710938 159.46875 C 861.285156 159.46875 827.703125 193.070312 827.703125 234.519531 L 977.71875 234.519531 C 977.71875 193.070312 944.136719 159.46875 902.710938 159.46875 " fill-opacity="1" fill-rule="nonzero"/><path fill="#f9b233" d="M 971.535156 163.320312 C 972.226562 164.011719 973.132812 164.355469 974.035156 164.355469 C 974.941406 164.355469 975.847656 164.011719 976.539062 163.320312 L 997.8125 142.035156 C 999.195312 140.652344 999.195312 138.410156 997.8125 137.023438 C 996.429688 135.644531 994.1875 135.644531 992.804688 137.023438 L 971.535156 158.308594 C 970.152344 159.695312 970.152344 161.9375 971.535156 163.320312 " fill-opacity="1" fill-rule="nonzero"/><path fill="#f9b233" d="M 927.902344 138.113281 C 928.210938 138.195312 928.515625 138.234375 928.820312 138.234375 C 930.382812 138.234375 931.8125 137.191406 932.238281 135.609375 L 940.023438 106.53125 C 940.527344 104.644531 939.40625 102.703125 937.519531 102.195312 C 935.628906 101.691406 933.691406 102.8125 933.183594 104.699219 L 925.398438 133.777344 C 924.890625 135.664062 926.011719 137.605469 927.902344 138.113281 " fill-opacity="1" fill-rule="nonzero"/><path fill="#f9b233" d="M 873.183594 135.609375 C 873.609375 137.191406 875.039062 138.234375 876.601562 138.234375 C 876.90625 138.234375 877.214844 138.195312 877.519531 138.113281 C 879.40625 137.605469 880.527344 135.664062 880.019531 133.777344 L 872.234375 104.699219 C 871.730469 102.8125 869.789062 101.6875 867.902344 102.195312 C 866.011719 102.703125 864.890625 104.644531 865.398438 106.53125 L 873.183594 135.609375 " fill-opacity="1" fill-rule="nonzero"/><path fill="#f9b233" d="M 828.882812 163.320312 C 829.574219 164.011719 830.480469 164.355469 831.382812 164.355469 C 832.289062 164.355469 833.195312 164.011719 833.886719 163.320312 C 835.269531 161.9375 835.269531 159.695312 833.886719 158.308594 L 812.613281 137.023438 C 811.234375 135.644531 808.992188 135.644531 807.609375 137.023438 C 806.226562 138.410156 806.226562 140.652344 807.609375 142.035156 L 828.882812 163.320312 " fill-opacity="1" fill-rule="nonzero"/><path fill="#f9b233" d="M 806.195312 202.640625 L 777.132812 194.847656 C 775.246094 194.34375 773.304688 195.464844 772.800781 197.351562 C 772.292969 199.242188 773.414062 201.183594 775.300781 201.6875 L 804.363281 209.480469 C 804.667969 209.5625 804.976562 209.601562 805.277344 209.601562 C 806.839844 209.601562 808.273438 208.558594 808.695312 206.976562 C 809.203125 205.085938 808.082031 203.144531 806.195312 202.640625 " fill-opacity="1" fill-rule="nonzero"/><path fill="#f9b233" d="M 1001.058594 209.480469 L 1030.117188 201.6875 C 1032.007812 201.183594 1033.125 199.242188 1032.621094 197.351562 C 1032.113281 195.464844 1030.171875 194.339844 1028.285156 194.847656 L 999.226562 202.640625 C 997.339844 203.144531 996.21875 205.085938 996.726562 206.976562 C 997.148438 208.558594 998.578125 209.601562 1000.140625 209.601562 C 1000.445312 209.601562 1000.753906 209.5625 1001.058594 209.480469 " fill-opacity="1" fill-rule="nonzero"/><path fill="#f9b233" d="M 951.375 147.839844 C 951.933594 148.164062 952.539062 148.316406 953.140625 148.316406 C 953.292969 148.316406 953.445312 148.308594 953.597656 148.285156 C 954.65625 148.152344 955.636719 147.539062 956.210938 146.546875 L 985.867188 95.148438 C 986.84375 93.453125 986.265625 91.289062 984.570312 90.3125 C 982.878906 89.332031 980.714844 89.914062 979.738281 91.605469 L 965.121094 116.9375 L 950.082031 143.003906 C 949.101562 144.699219 949.683594 146.863281 951.375 147.839844 " fill-opacity="1" fill-rule="nonzero"/><g clip-path="url(#0957146b27)"><path fill="#f9b233" d="M 902.710938 134.796875 C 904.664062 134.796875 906.25 133.207031 906.25 131.253906 L 906.25 71.902344 C 906.25 69.949219 904.664062 68.363281 902.710938 68.363281 C 900.757812 68.363281 899.171875 69.949219 899.171875 71.902344 L 899.171875 131.253906 C 899.171875 133.207031 900.757812 134.796875 902.710938 134.796875 " fill-opacity="1" fill-rule="nonzero"/></g><path fill="#f9b233" d="M 849.210938 146.546875 C 849.867188 147.683594 851.054688 148.316406 852.277344 148.316406 C 852.878906 148.316406 853.488281 148.164062 854.046875 147.839844 C 855.738281 146.863281 856.320312 144.699219 855.339844 143.003906 L 825.683594 91.605469 C 824.707031 89.914062 822.542969 89.332031 820.847656 90.3125 C 819.15625 91.289062 818.574219 93.453125 819.554688 95.148438 L 849.210938 146.546875 " fill-opacity="1" fill-rule="nonzero"/><path fill="#f9b233" d="M 817.125 178.652344 L 765.753906 148.976562 C 764.0625 148 761.898438 148.578125 760.921875 150.273438 C 759.945312 151.96875 760.523438 154.132812 762.21875 155.109375 L 813.585938 184.785156 C 814.140625 185.105469 814.75 185.261719 815.351562 185.261719 C 816.574219 185.261719 817.765625 184.625 818.417969 183.488281 C 819.398438 181.792969 818.816406 179.628906 817.125 178.652344 " fill-opacity="1" fill-rule="nonzero"/><g clip-path="url(#3f7c4bb85e)"><path fill="#f9b233" d="M 801.839844 228.640625 L 742.527344 228.640625 C 740.570312 228.640625 738.988281 230.226562 738.988281 232.183594 C 738.988281 234.136719 740.570312 235.722656 742.527344 235.722656 L 801.839844 235.722656 C 803.792969 235.722656 805.378906 234.136719 805.378906 232.183594 C 805.378906 230.226562 803.792969 228.640625 801.839844 228.640625 " fill-opacity="1" fill-rule="nonzero"/></g><g clip-path="url(#e6f70ebf60)"><path fill="#f9b233" d="M 1062.894531 228.640625 L 1003.582031 228.640625 C 1001.625 228.640625 1000.039062 230.226562 1000.039062 232.183594 C 1000.039062 234.136719 1001.625 235.722656 1003.582031 235.722656 L 1062.894531 235.722656 C 1064.847656 235.722656 1066.433594 234.136719 1066.433594 232.183594 C 1066.433594 230.226562 1064.847656 228.640625 1062.894531 228.640625 " fill-opacity="1" fill-rule="nonzero"/></g><path fill="#f9b233" d="M 1044.5 150.273438 C 1043.519531 148.578125 1041.359375 148 1039.664062 148.976562 L 988.296875 178.652344 C 986.601562 179.628906 986.023438 181.792969 987 183.488281 C 987.65625 184.625 988.847656 185.261719 990.070312 185.261719 C 990.667969 185.261719 991.277344 185.105469 991.835938 184.785156 L 1043.203125 155.109375 C 1044.898438 154.132812 1045.476562 151.96875 1044.5 150.273438 " fill-opacity="1" fill-rule="nonzero"/><path stroke-linecap="butt" transform="matrix(0.748574, 0, 0, 0.748574, 373.655923, 113.48162)" fill="none" stroke-linejoin="miter" d="M 58.966709 147.320213 C 49.401649 147.320213 40.817621 145.770391 33.219843 142.670748 C 25.627283 139.545014 19.548017 134.926859 14.992481 128.821502 C 10.468255 122.710926 8.083513 115.374061 7.838255 106.810906 L 41.83518 106.810906 C 42.320478 111.669101 43.990319 115.374061 46.844704 117.925787 C 49.704308 120.477513 53.440577 121.755986 58.058732 121.755986 C 62.796907 121.755986 66.533177 120.660152 69.267542 118.473704 C 72.001907 116.287255 73.36909 113.265886 73.36909 109.404378 C 73.36909 106.184715 72.278475 103.512969 70.086808 101.383922 C 67.90036 99.260092 65.212959 97.511977 62.024605 96.144795 C 58.862343 94.777612 54.364208 93.22779 48.535419 91.49533 C 40.055756 88.886203 33.146787 86.271858 27.798077 83.657512 C 22.449366 81.043167 17.846866 77.186877 13.990576 72.083425 C 10.134287 66.979972 8.203533 60.326698 8.203533 52.123603 C 8.203533 39.90767 12.623394 30.353047 21.463116 23.459733 C 30.302839 16.561201 41.819526 13.111935 56.007958 13.111935 C 70.436431 13.111935 82.073138 16.561201 90.91286 23.459733 C 99.757801 30.353047 104.480321 39.970289 105.085638 52.306242 L 70.546014 52.306242 C 70.300757 48.084674 68.750935 44.755428 65.89655 42.323722 C 63.042165 39.897233 59.363296 38.68138 54.870379 38.68138 C 51.008871 38.68138 47.893573 39.714595 45.524486 41.781023 C 43.186708 43.816142 42.017819 46.759238 42.017819 50.620746 C 42.017819 54.842313 44.005974 58.14025 47.987502 60.509337 C 51.96903 62.878425 58.178752 65.430151 66.627106 68.164516 C 75.10155 71.018901 81.984427 73.753266 87.270519 76.367611 C 92.55661 78.981957 97.127801 82.775628 100.984091 87.75906 C 104.845599 92.742493 106.771135 99.150509 106.771135 106.993545 C 106.771135 114.466085 104.876908 121.255033 101.078019 127.360391 C 97.27913 133.439657 91.763436 138.282197 84.536154 141.898447 C 77.334963 145.514697 68.813554 147.320213 58.966709 147.320213 Z M 151.188914 14.98007 L 151.188914 93.363465 C 151.188914 101.201283 153.119668 107.249239 156.975957 111.502116 C 160.832247 115.723684 166.499271 117.837077 173.971811 117.837077 C 181.449569 117.837077 187.173994 115.723684 191.155522 111.502116 C 195.131831 107.249239 197.125205 101.201283 197.125205 93.363465 L 197.125205 14.98007 L 229.024392 14.98007 L 229.024392 93.180826 C 229.024392 104.880152 226.535285 114.768743 221.551852 122.851819 C 216.568419 130.929676 209.868181 137.040252 201.451137 141.167891 C 193.070621 145.269439 183.724728 147.320213 173.429113 147.320213 C 163.096969 147.320213 153.845005 145.300748 145.673219 141.26182 C 137.532743 137.191581 131.093417 131.081006 126.350024 122.940529 C 121.643159 114.800053 119.289726 104.880152 119.289726 93.180826 L 119.289726 14.98007 Z M 362.105527 145.999994 L 330.206339 145.999994 L 276.79229 65.158802 L 276.79229 145.999994 L 244.893103 145.999994 L 244.893103 14.98007 L 276.79229 14.98007 L 330.206339 96.144795 L 330.206339 14.98007 L 362.105527 14.98007 Z M 362.105527 145.999994 " stroke="#7db81e" stroke-width="8.166681" stroke-opacity="1" stroke-miterlimit="4"/><path stroke-linecap="butt" transform="matrix(0.748574, 0, 0, 0.748574, 373.655923, 113.48162)" fill="none" stroke-linejoin="miter" d="M 58.966709 311.319503 C 49.401649 311.319503 40.817621 309.769682 33.219843 306.675257 C 25.627283 303.544304 19.548017 298.92615 14.992481 292.820792 C 10.468255 286.715435 8.083513 279.37857 7.838255 270.810196 L 41.83518 270.810196 C 42.320478 275.668391 43.990319 279.37857 46.844704 281.930296 C 49.704308 284.482022 53.440577 285.755276 58.058732 285.755276 C 62.796907 285.755276 66.533177 284.664661 69.267542 282.472994 C 72.001907 280.286546 73.36909 277.265177 73.36909 273.403669 C 73.36909 270.184006 72.278475 267.51226 70.086808 265.383212 C 67.90036 263.259383 65.212959 261.511267 62.024605 260.144085 C 58.862343 258.776902 54.364208 257.227081 48.535419 255.49462 C 40.055756 252.885493 33.146787 250.271148 27.798077 247.656803 C 22.449366 245.047676 17.846866 241.186168 13.990576 236.082715 C 10.134287 230.979263 8.203533 224.325989 8.203533 216.122893 C 8.203533 203.912179 12.623394 194.357555 21.463116 187.459023 C 30.302839 180.560491 41.819526 177.116444 56.007958 177.116444 C 70.436431 177.116444 82.073138 180.560491 90.91286 187.459023 C 99.757801 194.357555 104.480321 203.969579 105.085638 216.305532 L 70.546014 216.305532 C 70.300757 212.083965 68.750935 208.754718 65.89655 206.323012 C 63.042165 203.896524 59.363296 202.680671 54.870379 202.680671 C 51.008871 202.680671 47.893573 203.713885 45.524486 205.780314 C 43.186708 207.815433 42.017819 210.758528 42.017819 214.620036 C 42.017819 218.841604 44.005974 222.13954 47.987502 224.508628 C 51.96903 226.877715 58.178752 229.429441 66.627106 232.163806 C 75.10155 235.018191 81.984427 237.752556 87.270519 240.366902 C 92.55661 242.981247 97.127801 246.774918 100.984091 251.758351 C 104.845599 256.741783 106.771135 263.155018 106.771135 270.992835 C 106.771135 278.465375 104.876908 285.254324 101.078019 291.359681 C 97.27913 297.438947 91.763436 302.281487 84.536154 305.897737 C 77.334963 309.513987 68.813554 311.319503 58.966709 311.319503 Z M 233.308579 178.984579 L 233.308579 309.999285 L 201.409391 309.999285 L 201.409391 256.042537 L 151.73683 256.042537 L 151.73683 309.999285 L 119.837643 309.999285 L 119.837643 178.984579 L 151.73683 178.984579 L 151.73683 230.295671 L 201.409391 230.295671 L 201.409391 178.984579 Z M 331.317827 286.851109 L 282.422786 286.851109 L 274.584969 309.999285 L 241.177706 309.999285 L 288.575108 178.984579 L 325.530784 178.984579 L 372.928186 309.999285 L 339.160863 309.999285 Z M 323.11995 262.194859 L 306.849434 214.254758 L 290.808521 262.194859 Z M 447.585747 309.999285 L 420.336024 260.556327 L 412.680846 260.556327 L 412.680846 309.999285 L 380.781658 309.999285 L 380.781658 178.984579 L 434.373128 178.984579 C 444.668743 178.984579 453.46672 180.790095 460.756621 184.406345 C 468.046522 187.991285 473.489161 192.927754 477.074101 199.21575 C 480.685133 205.503746 482.495867 212.506643 482.495867 220.224441 C 482.495867 228.944144 480.032851 236.719342 475.112038 243.555255 C 470.222534 250.391168 462.974379 255.238926 453.372791 258.093311 L 483.633447 309.999285 Z M 412.680846 237.95085 L 432.504993 237.95085 C 438.339001 237.95085 442.711898 236.526267 445.628902 233.666664 C 448.577216 230.812279 450.048763 226.757695 450.048763 221.502913 C 450.048763 216.55079 448.577216 212.642318 445.628902 209.787933 C 442.711898 206.902238 438.339001 205.462 432.504993 205.462 L 412.680846 205.462 Z M 527.847714 204.548806 L 527.847714 231.026227 L 570.590433 231.026227 L 570.590433 255.677259 L 527.847714 255.677259 L 527.847714 284.435058 L 576.200057 284.435058 L 576.200057 309.999285 L 495.948526 309.999285 L 495.948526 178.984579 L 576.200057 178.984579 L 576.200057 204.548806 Z M 527.847714 204.548806 " stroke="#7db81e" stroke-width="8.166681" stroke-opacity="1" stroke-miterlimit="4"/><g fill="#ffffff" fill-opacity="1"><g transform="translate(373.655923, 222.773442)"><g><path d="M 44.15625 0.984375 C 36.976562 0.984375 30.546875 -0.179688 24.859375 -2.515625 C 19.179688 -4.847656 14.640625 -8.296875 11.234375 -12.859375 C 7.835938 -17.421875 6.050781 -22.914062 5.875 -29.34375 L 31.296875 -29.34375 C 31.671875 -25.707031 32.925781 -22.9375 35.0625 -21.03125 C 37.207031 -19.125 40.003906 -18.171875 43.453125 -18.171875 C 46.992188 -18.171875 49.789062 -18.984375 51.84375 -20.609375 C 53.894531 -22.242188 54.921875 -24.503906 54.921875 -27.390625 C 54.921875 -29.804688 54.101562 -31.804688 52.46875 -33.390625 C 50.84375 -34.972656 48.835938 -36.273438 46.453125 -37.296875 C 44.078125 -38.328125 40.703125 -39.492188 36.328125 -40.796875 C 29.992188 -42.753906 24.820312 -44.710938 20.8125 -46.671875 C 16.8125 -48.628906 13.363281 -51.515625 10.46875 -55.328125 C 7.582031 -59.148438 6.140625 -64.132812 6.140625 -70.28125 C 6.140625 -79.414062 9.445312 -86.566406 16.0625 -91.734375 C 22.675781 -96.898438 31.296875 -99.484375 41.921875 -99.484375 C 52.722656 -99.484375 61.429688 -96.898438 68.046875 -91.734375 C 74.660156 -86.566406 78.203125 -79.367188 78.671875 -70.140625 L 52.8125 -70.140625 C 52.632812 -73.304688 51.472656 -75.796875 49.328125 -77.609375 C 47.179688 -79.429688 44.429688 -80.34375 41.078125 -80.34375 C 38.191406 -80.34375 35.863281 -79.570312 34.09375 -78.03125 C 32.320312 -76.5 31.4375 -74.289062 31.4375 -71.40625 C 31.4375 -68.238281 32.925781 -65.769531 35.90625 -64 C 38.894531 -62.226562 43.554688 -60.316406 49.890625 -58.265625 C 56.222656 -56.128906 61.367188 -54.082031 65.328125 -52.125 C 69.285156 -50.164062 72.707031 -47.320312 75.59375 -43.59375 C 78.476562 -39.863281 79.921875 -35.066406 79.921875 -29.203125 C 79.921875 -23.617188 78.5 -18.539062 75.65625 -13.96875 C 72.820312 -9.40625 68.703125 -5.769531 63.296875 -3.0625 C 57.890625 -0.363281 51.507812 0.984375 44.15625 0.984375 Z M 44.15625 0.984375 "/></g></g></g><g fill="#ffffff" fill-opacity="1"><g transform="translate(454.69673, 222.773442)"><g><path d="M 32.140625 -98.09375 L 32.140625 -39.40625 C 32.140625 -33.539062 33.582031 -29.019531 36.46875 -25.84375 C 39.351562 -22.675781 43.59375 -21.09375 49.1875 -21.09375 C 54.78125 -21.09375 59.066406 -22.675781 62.046875 -25.84375 C 65.023438 -29.019531 66.515625 -33.539062 66.515625 -39.40625 L 66.515625 -98.09375 L 90.40625 -98.09375 L 90.40625 -39.546875 C 90.40625 -30.785156 88.539062 -23.378906 84.8125 -17.328125 C 81.09375 -11.273438 76.085938 -6.707031 69.796875 -3.625 C 63.503906 -0.550781 56.492188 0.984375 48.765625 0.984375 C 41.035156 0.984375 34.117188 -0.53125 28.015625 -3.5625 C 21.910156 -6.59375 17.085938 -11.15625 13.546875 -17.25 C 10.015625 -23.351562 8.25 -30.785156 8.25 -39.546875 L 8.25 -98.09375 Z M 32.140625 -98.09375 "/></g></g></g><g fill="#ffffff" fill-opacity="1"><g transform="translate(548.312888, 222.773442)"><g><path d="M 96.421875 0 L 72.515625 0 L 32.5625 -60.5 L 32.5625 0 L 8.65625 0 L 8.65625 -98.09375 L 32.5625 -98.09375 L 72.515625 -37.3125 L 72.515625 -98.09375 L 96.421875 -98.09375 Z M 96.421875 0 "/></g></g></g><g fill="#7db81e" fill-opacity="1"><g transform="translate(373.655923, 345.539598)"><g><path d="M 44.15625 0.984375 C 36.976562 0.984375 30.546875 -0.179688 24.859375 -2.515625 C 19.179688 -4.847656 14.640625 -8.296875 11.234375 -12.859375 C 7.835938 -17.421875 6.050781 -22.914062 5.875 -29.34375 L 31.296875 -29.34375 C 31.671875 -25.707031 32.925781 -22.9375 35.0625 -21.03125 C 37.207031 -19.125 40.003906 -18.171875 43.453125 -18.171875 C 46.992188 -18.171875 49.789062 -18.984375 51.84375 -20.609375 C 53.894531 -22.242188 54.921875 -24.503906 54.921875 -27.390625 C 54.921875 -29.804688 54.101562 -31.804688 52.46875 -33.390625 C 50.84375 -34.972656 48.835938 -36.273438 46.453125 -37.296875 C 44.078125 -38.328125 40.703125 -39.492188 36.328125 -40.796875 C 29.992188 -42.753906 24.820312 -44.710938 20.8125 -46.671875 C 16.8125 -48.628906 13.363281 -51.515625 10.46875 -55.328125 C 7.582031 -59.148438 6.140625 -64.132812 6.140625 -70.28125 C 6.140625 -79.414062 9.445312 -86.566406 16.0625 -91.734375 C 22.675781 -96.898438 31.296875 -99.484375 41.921875 -99.484375 C 52.722656 -99.484375 61.429688 -96.898438 68.046875 -91.734375 C 74.660156 -86.566406 78.203125 -79.367188 78.671875 -70.140625 L 52.8125 -70.140625 C 52.632812 -73.304688 51.472656 -75.796875 49.328125 -77.609375 C 47.179688 -79.429688 44.429688 -80.34375 41.078125 -80.34375 C 38.191406 -80.34375 35.863281 -79.570312 34.09375 -78.03125 C 32.320312 -76.5 31.4375 -74.289062 31.4375 -71.40625 C 31.4375 -68.238281 32.925781 -65.769531 35.90625 -64 C 38.894531 -62.226562 43.554688 -60.316406 49.890625 -58.265625 C 56.222656 -56.128906 61.367188 -54.082031 65.328125 -52.125 C 69.285156 -50.164062 72.707031 -47.320312 75.59375 -43.59375 C 78.476562 -39.863281 79.921875 -35.066406 79.921875 -29.203125 C 79.921875 -23.617188 78.5 -18.539062 75.65625 -13.96875 C 72.820312 -9.40625 68.703125 -5.769531 63.296875 -3.0625 C 57.890625 -0.363281 51.507812 0.984375 44.15625 0.984375 Z M 44.15625 0.984375 "/></g></g></g><g fill="#7db81e" fill-opacity="1"><g transform="translate(454.69673, 345.539598)"><g><path d="M 93.625 -98.09375 L 93.625 0 L 69.734375 0 L 69.734375 -40.390625 L 32.5625 -40.390625 L 32.5625 0 L 8.65625 0 L 8.65625 -98.09375 L 32.5625 -98.09375 L 32.5625 -59.671875 L 69.734375 -59.671875 L 69.734375 -98.09375 Z M 93.625 -98.09375 "/></g></g></g><g fill="#7db81e" fill-opacity="1"><g transform="translate(551.945779, 345.539598)"><g><path d="M 69.734375 -17.328125 L 33.109375 -17.328125 L 27.25 0 L 2.234375 0 L 37.734375 -98.09375 L 65.390625 -98.09375 L 100.890625 0 L 75.59375 0 Z M 63.578125 -35.765625 L 51.421875 -71.6875 L 39.40625 -35.765625 Z M 63.578125 -35.765625 "/></g></g></g><g fill="#7db81e" fill-opacity="1"><g transform="translate(650.033159, 345.539598)"><g><path d="M 58.6875 0 L 38.28125 -37.03125 L 32.5625 -37.03125 L 32.5625 0 L 8.65625 0 L 8.65625 -98.09375 L 48.765625 -98.09375 C 56.492188 -98.09375 63.082031 -96.738281 68.53125 -94.03125 C 73.988281 -91.332031 78.066406 -87.628906 80.765625 -82.921875 C 83.460938 -78.222656 84.8125 -72.988281 84.8125 -67.21875 C 84.8125 -60.695312 82.972656 -54.875 79.296875 -49.75 C 75.617188 -44.625 70.191406 -40.988281 63.015625 -38.84375 L 85.65625 0 Z M 32.5625 -53.9375 L 47.375 -53.9375 C 51.75 -53.9375 55.03125 -55.003906 57.21875 -57.140625 C 59.40625 -59.285156 60.5 -62.316406 60.5 -66.234375 C 60.5 -69.960938 59.40625 -72.894531 57.21875 -75.03125 C 55.03125 -77.175781 51.75 -78.25 47.375 -78.25 L 32.5625 -78.25 Z M 32.5625 -53.9375 "/></g></g></g><g fill="#7db81e" fill-opacity="1"><g transform="translate(736.243824, 345.539598)"><g><path d="M 32.5625 -78.953125 L 32.5625 -59.109375 L 64.5625 -59.109375 L 64.5625 -40.65625 L 32.5625 -40.65625 L 32.5625 -19.140625 L 68.75 -19.140625 L 68.75 0 L 8.65625 0 L 8.65625 -98.09375 L 68.75 -98.09375 L 68.75 -78.953125 Z M 32.5625 -78.953125 "/></g></g></g><g fill="#f9b233" fill-opacity="1"><g transform="translate(373.655923, 408.921939)"><g><path d="M 1.3125 -14.046875 C 1.3125 -16.816406 1.910156 -19.285156 3.109375 -21.453125 C 4.304688 -23.628906 5.976562 -25.320312 8.125 -26.53125 C 10.269531 -27.738281 12.695312 -28.34375 15.40625 -28.34375 C 18.738281 -28.34375 21.585938 -27.460938 23.953125 -25.703125 C 26.316406 -23.953125 27.898438 -21.5625 28.703125 -18.53125 L 21.203125 -18.53125 C 20.640625 -19.695312 19.84375 -20.582031 18.8125 -21.1875 C 17.789062 -21.800781 16.628906 -22.109375 15.328125 -22.109375 C 13.222656 -22.109375 11.519531 -21.375 10.21875 -19.90625 C 8.914062 -18.445312 8.265625 -16.492188 8.265625 -14.046875 C 8.265625 -11.597656 8.914062 -9.640625 10.21875 -8.171875 C 11.519531 -6.710938 13.222656 -5.984375 15.328125 -5.984375 C 16.628906 -5.984375 17.789062 -6.289062 18.8125 -6.90625 C 19.84375 -7.519531 20.640625 -8.410156 21.203125 -9.578125 L 28.703125 -9.578125 C 27.898438 -6.546875 26.316406 -4.15625 23.953125 -2.40625 C 21.585938 -0.664062 18.738281 0.203125 15.40625 0.203125 C 12.695312 0.203125 10.269531 -0.398438 8.125 -1.609375 C 5.976562 -2.828125 4.304688 -4.515625 3.109375 -6.671875 C 1.910156 -8.828125 1.3125 -11.285156 1.3125 -14.046875 Z M 1.3125 -14.046875 "/></g></g></g><g fill="#f9b233" fill-opacity="1"><g transform="translate(402.677622, 408.921939)"><g><path d="M 16.765625 0 L 10.9375 -10.578125 L 9.296875 -10.578125 L 9.296875 0 L 2.46875 0 L 2.46875 -28.03125 L 13.9375 -28.03125 C 16.144531 -28.03125 18.023438 -27.640625 19.578125 -26.859375 C 21.140625 -26.085938 22.304688 -25.03125 23.078125 -23.6875 C 23.847656 -22.34375 24.234375 -20.847656 24.234375 -19.203125 C 24.234375 -17.335938 23.707031 -15.671875 22.65625 -14.203125 C 21.601562 -12.742188 20.050781 -11.707031 18 -11.09375 L 24.46875 0 Z M 9.296875 -15.40625 L 13.53125 -15.40625 C 14.78125 -15.40625 15.71875 -15.710938 16.34375 -16.328125 C 16.96875 -16.941406 17.28125 -17.804688 17.28125 -18.921875 C 17.28125 -19.984375 16.96875 -20.820312 16.34375 -21.4375 C 15.71875 -22.050781 14.78125 -22.359375 13.53125 -22.359375 L 9.296875 -22.359375 Z M 9.296875 -15.40625 "/></g></g></g><g fill="#f9b233" fill-opacity="1"><g transform="translate(427.308119, 408.921939)"><g><path d="M 9.296875 -28.03125 L 9.296875 0 L 2.46875 0 L 2.46875 -28.03125 Z M 9.296875 -28.03125 "/></g></g></g><g fill="#f9b233" fill-opacity="1"><g transform="translate(437.687172, 408.921939)"><g><path d="M 19.921875 -4.953125 L 9.46875 -4.953125 L 7.78125 0 L 0.640625 0 L 10.78125 -28.03125 L 18.6875 -28.03125 L 28.828125 0 L 21.59375 0 Z M 18.171875 -10.21875 L 14.6875 -20.484375 L 11.265625 -10.21875 Z M 18.171875 -10.21875 "/></g></g></g><g fill="#f9b233" fill-opacity="1"><g transform="translate(465.71087, 408.921939)"><g><path d="M 27.546875 0 L 20.71875 0 L 9.296875 -17.28125 L 9.296875 0 L 2.46875 0 L 2.46875 -28.03125 L 9.296875 -28.03125 L 20.71875 -10.65625 L 20.71875 -28.03125 L 27.546875 -28.03125 Z M 27.546875 0 "/></g></g></g><g fill="#f9b233" fill-opacity="1"><g transform="translate(494.333368, 408.921939)"><g><path d="M 12.96875 -28.03125 C 15.925781 -28.03125 18.507812 -27.441406 20.71875 -26.265625 C 22.925781 -25.097656 24.632812 -23.457031 25.84375 -21.34375 C 27.0625 -19.226562 27.671875 -16.785156 27.671875 -14.015625 C 27.671875 -11.273438 27.0625 -8.835938 25.84375 -6.703125 C 24.632812 -4.578125 22.914062 -2.925781 20.6875 -1.75 C 18.46875 -0.582031 15.894531 0 12.96875 0 L 2.46875 0 L 2.46875 -28.03125 Z M 12.53125 -5.90625 C 15.113281 -5.90625 17.125 -6.609375 18.5625 -8.015625 C 20 -9.429688 20.71875 -11.429688 20.71875 -14.015625 C 20.71875 -16.597656 20 -18.609375 18.5625 -20.046875 C 17.125 -21.484375 15.113281 -22.203125 12.53125 -22.203125 L 9.296875 -22.203125 L 9.296875 -5.90625 Z M 12.53125 -5.90625 "/></g></g></g><g fill="#f9b233" fill-opacity="1"><g transform="translate(521.957862, 408.921939)"><g><path d="M 15.734375 0.28125 C 13.097656 0.28125 10.679688 -0.328125 8.484375 -1.546875 C 6.285156 -2.773438 4.539062 -4.488281 3.25 -6.6875 C 1.957031 -8.882812 1.3125 -11.351562 1.3125 -14.09375 C 1.3125 -16.832031 1.957031 -19.289062 3.25 -21.46875 C 4.539062 -23.65625 6.285156 -25.359375 8.484375 -26.578125 C 10.679688 -27.804688 13.097656 -28.421875 15.734375 -28.421875 C 18.367188 -28.421875 20.78125 -27.804688 22.96875 -26.578125 C 25.164062 -25.359375 26.894531 -23.65625 28.15625 -21.46875 C 29.425781 -19.289062 30.0625 -16.832031 30.0625 -14.09375 C 30.0625 -11.351562 29.421875 -8.882812 28.140625 -6.6875 C 26.867188 -4.488281 25.140625 -2.773438 22.953125 -1.546875 C 20.773438 -0.328125 18.367188 0.28125 15.734375 0.28125 Z M 15.734375 -5.953125 C 17.960938 -5.953125 19.75 -6.695312 21.09375 -8.1875 C 22.4375 -9.675781 23.109375 -11.644531 23.109375 -14.09375 C 23.109375 -16.570312 22.4375 -18.546875 21.09375 -20.015625 C 19.75 -21.492188 17.960938 -22.234375 15.734375 -22.234375 C 13.460938 -22.234375 11.65625 -21.5 10.3125 -20.03125 C 8.96875 -18.570312 8.296875 -16.59375 8.296875 -14.09375 C 8.296875 -11.613281 8.96875 -9.632812 10.3125 -8.15625 C 11.65625 -6.6875 13.460938 -5.953125 15.734375 -5.953125 Z M 15.734375 -5.953125 "/></g></g></g><g fill="#f9b233" fill-opacity="1"><g transform="translate(551.93763, 408.921939)"><g/></g></g><g fill="#f9b233" fill-opacity="1"><g transform="translate(559.003326, 408.921939)"><g><path d="M 27.546875 0 L 20.71875 0 L 9.296875 -17.28125 L 9.296875 0 L 2.46875 0 L 2.46875 -28.03125 L 9.296875 -28.03125 L 20.71875 -10.65625 L 20.71875 -28.03125 L 27.546875 -28.03125 Z M 27.546875 0 "/></g></g></g><g fill="#f9b233" fill-opacity="1"><g transform="translate(587.625835, 408.921939)"><g><path d="M 15.734375 0.28125 C 13.097656 0.28125 10.679688 -0.328125 8.484375 -1.546875 C 6.285156 -2.773438 4.539062 -4.488281 3.25 -6.6875 C 1.957031 -8.882812 1.3125 -11.351562 1.3125 -14.09375 C 1.3125 -16.832031 1.957031 -19.289062 3.25 -21.46875 C 4.539062 -23.65625 6.285156 -25.359375 8.484375 -26.578125 C 10.679688 -27.804688 13.097656 -28.421875 15.734375 -28.421875 C 18.367188 -28.421875 20.78125 -27.804688 22.96875 -26.578125 C 25.164062 -25.359375 26.894531 -23.65625 28.15625 -21.46875 C 29.425781 -19.289062 30.0625 -16.832031 30.0625 -14.09375 C 30.0625 -11.351562 29.421875 -8.882812 28.140625 -6.6875 C 26.867188 -4.488281 25.140625 -2.773438 22.953125 -1.546875 C 20.773438 -0.328125 18.367188 0.28125 15.734375 0.28125 Z M 15.734375 -5.953125 C 17.960938 -5.953125 19.75 -6.695312 21.09375 -8.1875 C 22.4375 -9.675781 23.109375 -11.644531 23.109375 -14.09375 C 23.109375 -16.570312 22.4375 -18.546875 21.09375 -20.015625 C 19.75 -21.492188 17.960938 -22.234375 15.734375 -22.234375 C 13.460938 -22.234375 11.65625 -21.5 10.3125 -20.03125 C 8.96875 -18.570312 8.296875 -16.59375 8.296875 -14.09375 C 8.296875 -11.613281 8.96875 -9.632812 10.3125 -8.15625 C 11.65625 -6.6875 13.460938 -5.953125 15.734375 -5.953125 Z M 15.734375 -5.953125 "/></g></g></g><g fill="#f9b233" fill-opacity="1"><g transform="translate(617.605602, 408.921939)"><g><path d="M 28.78125 -28.03125 L 18.84375 0 L 10.296875 0 L 0.359375 -28.03125 L 7.625 -28.03125 L 14.578125 -6.859375 L 21.5625 -28.03125 Z M 28.78125 -28.03125 "/></g></g></g><g fill="#f9b233" fill-opacity="1"><g transform="translate(645.349859, 408.921939)"><g><path d="M 19.921875 -4.953125 L 9.46875 -4.953125 L 7.78125 0 L 0.640625 0 L 10.78125 -28.03125 L 18.6875 -28.03125 L 28.828125 0 L 21.59375 0 Z M 18.171875 -10.21875 L 14.6875 -20.484375 L 11.265625 -10.21875 Z M 18.171875 -10.21875 "/></g></g></g><g fill="#f9b233" fill-opacity="1"><g transform="translate(673.373552, 408.921939)"><g><path d="M 12.609375 0.28125 C 10.566406 0.28125 8.734375 -0.0507812 7.109375 -0.71875 C 5.484375 -1.382812 4.179688 -2.367188 3.203125 -3.671875 C 2.234375 -4.972656 1.722656 -6.546875 1.671875 -8.390625 L 8.9375 -8.390625 C 9.050781 -7.347656 9.410156 -6.550781 10.015625 -6 C 10.628906 -5.457031 11.429688 -5.1875 12.421875 -5.1875 C 13.429688 -5.1875 14.226562 -5.421875 14.8125 -5.890625 C 15.394531 -6.359375 15.6875 -7.003906 15.6875 -7.828125 C 15.6875 -8.515625 15.453125 -9.082031 14.984375 -9.53125 C 14.523438 -9.988281 13.953125 -10.363281 13.265625 -10.65625 C 12.585938 -10.945312 11.625 -11.28125 10.375 -11.65625 C 8.570312 -12.21875 7.097656 -12.773438 5.953125 -13.328125 C 4.804688 -13.890625 3.816406 -14.71875 2.984375 -15.8125 C 2.160156 -16.90625 1.75 -18.328125 1.75 -20.078125 C 1.75 -22.691406 2.691406 -24.734375 4.578125 -26.203125 C 6.472656 -27.679688 8.9375 -28.421875 11.96875 -28.421875 C 15.0625 -28.421875 17.550781 -27.679688 19.4375 -26.203125 C 21.332031 -24.734375 22.34375 -22.679688 22.46875 -20.046875 L 15.09375 -20.046875 C 15.039062 -20.941406 14.707031 -21.648438 14.09375 -22.171875 C 13.476562 -22.691406 12.691406 -22.953125 11.734375 -22.953125 C 10.910156 -22.953125 10.242188 -22.734375 9.734375 -22.296875 C 9.234375 -21.859375 8.984375 -21.226562 8.984375 -20.40625 C 8.984375 -19.5 9.40625 -18.789062 10.25 -18.28125 C 11.101562 -17.78125 12.4375 -17.234375 14.25 -16.640625 C 16.0625 -16.035156 17.53125 -15.453125 18.65625 -14.890625 C 19.789062 -14.328125 20.769531 -13.515625 21.59375 -12.453125 C 22.414062 -11.390625 22.828125 -10.019531 22.828125 -8.34375 C 22.828125 -6.75 22.421875 -5.296875 21.609375 -3.984375 C 20.804688 -2.679688 19.628906 -1.644531 18.078125 -0.875 C 16.535156 -0.101562 14.710938 0.28125 12.609375 0.28125 Z M 12.609375 0.28125 "/></g></g></g><g fill="#f9b233" fill-opacity="1"><g transform="translate(696.527012, 408.921939)"><g/></g></g><g fill="#f9b233" fill-opacity="1"><g transform="translate(703.592709, 408.921939)"><g><path d="M 15.734375 0.28125 C 13.097656 0.28125 10.679688 -0.328125 8.484375 -1.546875 C 6.285156 -2.773438 4.539062 -4.488281 3.25 -6.6875 C 1.957031 -8.882812 1.3125 -11.351562 1.3125 -14.09375 C 1.3125 -16.832031 1.957031 -19.289062 3.25 -21.46875 C 4.539062 -23.65625 6.285156 -25.359375 8.484375 -26.578125 C 10.679688 -27.804688 13.097656 -28.421875 15.734375 -28.421875 C 18.367188 -28.421875 20.78125 -27.804688 22.96875 -26.578125 C 25.164062 -25.359375 26.894531 -23.65625 28.15625 -21.46875 C 29.425781 -19.289062 30.0625 -16.832031 30.0625 -14.09375 C 30.0625 -11.351562 29.421875 -8.882812 28.140625 -6.6875 C 26.867188 -4.488281 25.140625 -2.773438 22.953125 -1.546875 C 20.773438 -0.328125 18.367188 0.28125 15.734375 0.28125 Z M 15.734375 -5.953125 C 17.960938 -5.953125 19.75 -6.695312 21.09375 -8.1875 C 22.4375 -9.675781 23.109375 -11.644531 23.109375 -14.09375 C 23.109375 -16.570312 22.4375 -18.546875 21.09375 -20.015625 C 19.75 -21.492188 17.960938 -22.234375 15.734375 -22.234375 C 13.460938 -22.234375 11.65625 -21.5 10.3125 -20.03125 C 8.96875 -18.570312 8.296875 -16.59375 8.296875 -14.09375 C 8.296875 -11.613281 8.96875 -9.632812 10.3125 -8.15625 C 11.65625 -6.6875 13.460938 -5.953125 15.734375 -5.953125 Z M 15.734375 -5.953125 "/></g></g></g><g fill="#f9b233" fill-opacity="1"><g transform="translate(733.572476, 408.921939)"><g><path d="M 23.828125 -19 C 23.828125 -17.375 23.453125 -15.890625 22.703125 -14.546875 C 21.960938 -13.203125 20.820312 -12.117188 19.28125 -11.296875 C 17.738281 -10.472656 15.820312 -10.0625 13.53125 -10.0625 L 9.296875 -10.0625 L 9.296875 0 L 2.46875 0 L 2.46875 -28.03125 L 13.53125 -28.03125 C 15.769531 -28.03125 17.660156 -27.640625 19.203125 -26.859375 C 20.742188 -26.085938 21.898438 -25.023438 22.671875 -23.671875 C 23.441406 -22.316406 23.828125 -20.757812 23.828125 -19 Z M 13.015625 -15.484375 C 14.316406 -15.484375 15.285156 -15.789062 15.921875 -16.40625 C 16.566406 -17.019531 16.890625 -17.882812 16.890625 -19 C 16.890625 -20.113281 16.566406 -20.976562 15.921875 -21.59375 C 15.285156 -22.207031 14.316406 -22.515625 13.015625 -22.515625 L 9.296875 -22.515625 L 9.296875 -15.484375 Z M 13.015625 -15.484375 "/></g></g></g><g fill="#f9b233" fill-opacity="1"><g transform="translate(757.085238, 408.921939)"><g><path d="M 15.734375 0.28125 C 13.097656 0.28125 10.679688 -0.328125 8.484375 -1.546875 C 6.285156 -2.773438 4.539062 -4.488281 3.25 -6.6875 C 1.957031 -8.882812 1.3125 -11.351562 1.3125 -14.09375 C 1.3125 -16.832031 1.957031 -19.289062 3.25 -21.46875 C 4.539062 -23.65625 6.285156 -25.359375 8.484375 -26.578125 C 10.679688 -27.804688 13.097656 -28.421875 15.734375 -28.421875 C 18.367188 -28.421875 20.78125 -27.804688 22.96875 -26.578125 C 25.164062 -25.359375 26.894531 -23.65625 28.15625 -21.46875 C 29.425781 -19.289062 30.0625 -16.832031 30.0625 -14.09375 C 30.0625 -11.351562 29.421875 -8.882812 28.140625 -6.6875 C 26.867188 -4.488281 25.140625 -2.773438 22.953125 -1.546875 C 20.773438 -0.328125 18.367188 0.28125 15.734375 0.28125 Z M 15.734375 -5.953125 C 17.960938 -5.953125 19.75 -6.695312 21.09375 -8.1875 C 22.4375 -9.675781 23.109375 -11.644531 23.109375 -14.09375 C 23.109375 -16.570312 22.4375 -18.546875 21.09375 -20.015625 C 19.75 -21.492188 17.960938 -22.234375 15.734375 -22.234375 C 13.460938 -22.234375 11.65625 -21.5 10.3125 -20.03125 C 8.96875 -18.570312 8.296875 -16.59375 8.296875 -14.09375 C 8.296875 -11.613281 8.96875 -9.632812 10.3125 -8.15625 C 11.65625 -6.6875 13.460938 -5.953125 15.734375 -5.953125 Z M 15.734375 -5.953125 "/></g></g></g><g fill="#f9b233" fill-opacity="1"><g transform="translate(787.065029, 408.921939)"><g><path d="M 16.765625 0 L 10.9375 -10.578125 L 9.296875 -10.578125 L 9.296875 0 L 2.46875 0 L 2.46875 -28.03125 L 13.9375 -28.03125 C 16.144531 -28.03125 18.023438 -27.640625 19.578125 -26.859375 C 21.140625 -26.085938 22.304688 -25.03125 23.078125 -23.6875 C 23.847656 -22.34375 24.234375 -20.847656 24.234375 -19.203125 C 24.234375 -17.335938 23.707031 -15.671875 22.65625 -14.203125 C 21.601562 -12.742188 20.050781 -11.707031 18 -11.09375 L 24.46875 0 Z M 9.296875 -15.40625 L 13.53125 -15.40625 C 14.78125 -15.40625 15.71875 -15.710938 16.34375 -16.328125 C 16.96875 -16.941406 17.28125 -17.804688 17.28125 -18.921875 C 17.28125 -19.984375 16.96875 -20.820312 16.34375 -21.4375 C 15.71875 -22.050781 14.78125 -22.359375 13.53125 -22.359375 L 9.296875 -22.359375 Z M 9.296875 -15.40625 "/></g></g></g><g fill="#f9b233" fill-opacity="1"><g transform="translate(811.695511, 408.921939)"><g><path d="M 22.640625 -28.03125 L 22.640625 -22.5625 L 15.203125 -22.5625 L 15.203125 0 L 8.390625 0 L 8.390625 -22.5625 L 0.953125 -22.5625 L 0.953125 -28.03125 Z M 22.640625 -28.03125 "/></g></g></g><g fill="#f9b233" fill-opacity="1"><g transform="translate(833.89089, 408.921939)"><g><path d="M 9.1875 -28.03125 L 9.1875 -11.265625 C 9.1875 -9.585938 9.597656 -8.296875 10.421875 -7.390625 C 11.242188 -6.484375 12.453125 -6.03125 14.046875 -6.03125 C 15.648438 -6.03125 16.875 -6.484375 17.71875 -7.390625 C 18.570312 -8.296875 19 -9.585938 19 -11.265625 L 19 -28.03125 L 25.828125 -28.03125 L 25.828125 -11.296875 C 25.828125 -8.796875 25.296875 -6.679688 24.234375 -4.953125 C 23.171875 -3.222656 21.738281 -1.914062 19.9375 -1.03125 C 18.144531 -0.15625 16.144531 0.28125 13.9375 0.28125 C 11.726562 0.28125 9.75 -0.148438 8 -1.015625 C 6.257812 -1.878906 4.882812 -3.179688 3.875 -4.921875 C 2.863281 -6.671875 2.359375 -8.796875 2.359375 -11.296875 L 2.359375 -28.03125 Z M 9.1875 -28.03125 "/></g></g></g><g fill="#f9b233" fill-opacity="1"><g transform="translate(860.637154, 408.921939)"><g><path d="M 27.546875 0 L 20.71875 0 L 9.296875 -17.28125 L 9.296875 0 L 2.46875 0 L 2.46875 -28.03125 L 9.296875 -28.03125 L 20.71875 -10.65625 L 20.71875 -28.03125 L 27.546875 -28.03125 Z M 27.546875 0 "/></g></g></g><g fill="#f9b233" fill-opacity="1"><g transform="translate(889.259652, 408.921939)"><g><path d="M 9.296875 -28.03125 L 9.296875 0 L 2.46875 0 L 2.46875 -28.03125 Z M 9.296875 -28.03125 "/></g></g></g><g fill="#f9b233" fill-opacity="1"><g transform="translate(899.638716, 408.921939)"><g><path d="M 12.96875 -28.03125 C 15.925781 -28.03125 18.507812 -27.441406 20.71875 -26.265625 C 22.925781 -25.097656 24.632812 -23.457031 25.84375 -21.34375 C 27.0625 -19.226562 27.671875 -16.785156 27.671875 -14.015625 C 27.671875 -11.273438 27.0625 -8.835938 25.84375 -6.703125 C 24.632812 -4.578125 22.914062 -2.925781 20.6875 -1.75 C 18.46875 -0.582031 15.894531 0 12.96875 0 L 2.46875 0 L 2.46875 -28.03125 Z M 12.53125 -5.90625 C 15.113281 -5.90625 17.125 -6.609375 18.5625 -8.015625 C 20 -9.429688 20.71875 -11.429688 20.71875 -14.015625 C 20.71875 -16.597656 20 -18.609375 18.5625 -20.046875 C 17.125 -21.484375 15.113281 -22.203125 12.53125 -22.203125 L 9.296875 -22.203125 L 9.296875 -5.90625 Z M 12.53125 -5.90625 "/></g></g></g><g fill="#f9b233" fill-opacity="1"><g transform="translate(927.263221, 408.921939)"><g><path d="M 19.921875 -4.953125 L 9.46875 -4.953125 L 7.78125 0 L 0.640625 0 L 10.78125 -28.03125 L 18.6875 -28.03125 L 28.828125 0 L 21.59375 0 Z M 18.171875 -10.21875 L 14.6875 -20.484375 L 11.265625 -10.21875 Z M 18.171875 -10.21875 "/></g></g></g><g fill="#f9b233" fill-opacity="1"><g transform="translate(955.286914, 408.921939)"><g><path d="M 12.96875 -28.03125 C 15.925781 -28.03125 18.507812 -27.441406 20.71875 -26.265625 C 22.925781 -25.097656 24.632812 -23.457031 25.84375 -21.34375 C 27.0625 -19.226562 27.671875 -16.785156 27.671875 -14.015625 C 27.671875 -11.273438 27.0625 -8.835938 25.84375 -6.703125 C 24.632812 -4.578125 22.914062 -2.925781 20.6875 -1.75 C 18.46875 -0.582031 15.894531 0 12.96875 0 L 2.46875 0 L 2.46875 -28.03125 Z M 12.53125 -5.90625 C 15.113281 -5.90625 17.125 -6.609375 18.5625 -8.015625 C 20 -9.429688 20.71875 -11.429688 20.71875 -14.015625 C 20.71875 -16.597656 20 -18.609375 18.5625 -20.046875 C 17.125 -21.484375 15.113281 -22.203125 12.53125 -22.203125 L 9.296875 -22.203125 L 9.296875 -5.90625 Z M 12.53125 -5.90625 "/></g></g></g><g fill="#f9b233" fill-opacity="1"><g transform="translate(982.911419, 408.921939)"><g><path d="M 9.296875 -22.5625 L 9.296875 -16.890625 L 18.4375 -16.890625 L 18.4375 -11.625 L 9.296875 -11.625 L 9.296875 -5.46875 L 19.640625 -5.46875 L 19.640625 0 L 2.46875 0 L 2.46875 -28.03125 L 19.640625 -28.03125 L 19.640625 -22.5625 Z M 9.296875 -22.5625 "/></g></g></g><g fill="#f9b233" fill-opacity="1"><g transform="translate(1003.110813, 408.921939)"><g><path d="M 12.609375 0.28125 C 10.566406 0.28125 8.734375 -0.0507812 7.109375 -0.71875 C 5.484375 -1.382812 4.179688 -2.367188 3.203125 -3.671875 C 2.234375 -4.972656 1.722656 -6.546875 1.671875 -8.390625 L 8.9375 -8.390625 C 9.050781 -7.347656 9.410156 -6.550781 10.015625 -6 C 10.628906 -5.457031 11.429688 -5.1875 12.421875 -5.1875 C 13.429688 -5.1875 14.226562 -5.421875 14.8125 -5.890625 C 15.394531 -6.359375 15.6875 -7.003906 15.6875 -7.828125 C 15.6875 -8.515625 15.453125 -9.082031 14.984375 -9.53125 C 14.523438 -9.988281 13.953125 -10.363281 13.265625 -10.65625 C 12.585938 -10.945312 11.625 -11.28125 10.375 -11.65625 C 8.570312 -12.21875 7.097656 -12.773438 5.953125 -13.328125 C 4.804688 -13.890625 3.816406 -14.71875 2.984375 -15.8125 C 2.160156 -16.90625 1.75 -18.328125 1.75 -20.078125 C 1.75 -22.691406 2.691406 -24.734375 4.578125 -26.203125 C 6.472656 -27.679688 8.9375 -28.421875 11.96875 -28.421875 C 15.0625 -28.421875 17.550781 -27.679688 19.4375 -26.203125 C 21.332031 -24.734375 22.34375 -22.679688 22.46875 -20.046875 L 15.09375 -20.046875 C 15.039062 -20.941406 14.707031 -21.648438 14.09375 -22.171875 C 13.476562 -22.691406 12.691406 -22.953125 11.734375 -22.953125 C 10.910156 -22.953125 10.242188 -22.734375 9.734375 -22.296875 C 9.234375 -21.859375 8.984375 -21.226562 8.984375 -20.40625 C 8.984375 -19.5 9.40625 -18.789062 10.25 -18.28125 C 11.101562 -17.78125 12.4375 -17.234375 14.25 -16.640625 C 16.0625 -16.035156 17.53125 -15.453125 18.65625 -14.890625 C 19.789062 -14.328125 20.769531 -13.515625 21.59375 -12.453125 C 22.414062 -11.390625 22.828125 -10.019531 22.828125 -8.34375 C 22.828125 -6.75 22.421875 -5.296875 21.609375 -3.984375 C 20.804688 -2.679688 19.628906 -1.644531 18.078125 -0.875 C 16.535156 -0.101562 14.710938 0.28125 12.609375 0.28125 Z M 12.609375 0.28125 "/></g></g></g><g clip-path="url(#7c9aede344)"><path fill="#7db81e" d="M 1438.746094 419.890625 L 1438.746094 539.824219 L 927.949219 539.824219 L 927.949219 488.949219 C 927.949219 487.832031 927.542969 485.703125 928.160156 484.738281 C 929.207031 483.097656 933.160156 482.109375 934.894531 481.328125 C 941.222656 478.472656 947.726562 476.226562 954.304688 474.035156 C 982.207031 464.734375 1011.808594 460.601562 1041.140625 462.609375 C 1089.6875 465.933594 1137.363281 477.441406 1185.59375 483.785156 C 1229.832031 489.601562 1274.136719 489.304688 1318.195312 482.019531 C 1341.496094 478.167969 1365.289062 472.835938 1386.847656 462.9375 C 1400.101562 456.851562 1412.957031 447.589844 1423.214844 437.257812 C 1426.746094 433.699219 1430.070312 429.816406 1433.34375 426.019531 C 1435.054688 424.039062 1436.667969 421.476562 1438.746094 419.890625 Z M 1438.746094 419.890625 " fill-opacity="1" fill-rule="nonzero"/></g><g clip-path="url(#408ccdf362)"><g clip-path="url(#a0714221f8)"><g clip-path="url(#e7f3811817)"><path fill="#7db81e" d="M 520.121094 566.648438 L 555.957031 681.105469 L 1043.417969 528.484375 L 1031.394531 490.070312 L 1028.21875 479.933594 C 1027.882812 478.867188 1027.636719 476.714844 1026.757812 475.976562 C 1025.269531 474.722656 1021.199219 474.960938 1019.3125 474.734375 C 1012.421875 473.902344 1005.539062 473.699219 998.609375 473.574219 C 969.203125 473.035156 939.714844 477.9375 912.328125 488.617188 C 866.988281 506.296875 824.929688 531.523438 780.796875 551.984375 C 740.320312 570.753906 697.949219 583.707031 653.726562 589.921875 C 630.339844 593.207031 606.042969 595.230469 582.507812 592.222656 C 568.042969 590.378906 553.007812 585.378906 540.128906 578.582031 C 535.695312 576.242188 531.363281 573.53125 527.105469 570.886719 C 524.882812 569.507812 522.574219 567.542969 520.121094 566.648438 Z M 520.121094 566.648438 " fill-opacity="1" fill-rule="nonzero"/></g></g></g><g clip-path="url(#866ce26202)"><path fill="#7db81e" d="M 68.574219 141.398438 C 84.140625 126.960938 100.949219 112.992188 121.058594 106.1875 C 132.625 102.273438 144.859375 100.882812 156.925781 98.992188 C 177.96875 95.699219 198.945312 90.769531 218.210938 81.6875 C 237.480469 72.605469 255.058594 59.136719 266.628906 41.25 C 279.644531 21.121094 284.609375 -3.625 294.167969 -25.441406 L -12.242188 -25.441406 L -12.242188 193.21875 C -1.132812 191.613281 9.8125 187.449219 19.550781 181.820312 C 37.933594 171.199219 53.003906 155.832031 68.574219 141.398438 " fill-opacity="1" fill-rule="nonzero"/></g><g clip-path="url(#d48bd37a4e)"><path fill="#7db81e" d="M 1481.175781 144.132812 C 1465.609375 129.699219 1448.800781 115.730469 1428.691406 108.925781 C 1417.125 105.011719 1404.886719 103.617188 1392.824219 101.730469 C 1371.78125 98.4375 1350.804688 93.503906 1331.535156 84.421875 C 1312.269531 75.34375 1294.691406 61.875 1283.121094 43.988281 C 1270.105469 23.859375 1265.140625 -0.886719 1255.582031 -22.703125 L 1561.992188 -22.703125 L 1561.992188 195.953125 C 1550.882812 194.347656 1539.9375 190.183594 1530.199219 184.558594 C 1511.816406 173.9375 1496.746094 158.566406 1481.175781 144.132812 " fill-opacity="1" fill-rule="nonzero"/></g></svg>